name analog
datacolumns 19
datarows 28
range 0.246 0.2595
endheader
time	ground_force_vx	ground_force_vy	ground_force_vz	ground_force_px	ground_force_py	ground_force_pz	l_ground_force_vx	l_ground_force_vy	l_ground_force_vz	l_ground_force_px	l_ground_force_py	l_ground_force_pz	ground_torque_x	ground_torque_y	ground_torque_z	l_ground_torque_x	l_ground_torque_y	l_ground_torque_z
0.246	-0.0	-0.0	-0.0	-4.3011250495910645	30.571727752685547	-238.6223602294922	6.820974349975586	-30.22544288635254	-272.1811218261719	-0.0	-0.0	-0.0	-0.0	-0.0	-0.0	79846.3671875	-31141.21484375	6061.68701171875
0.2465	-0.0	-0.0	-0.0	-4.291545867919922	31.00794792175293	-238.2675323486328	7.225847721099853	-30.17556381225586	-270.941650390625	-0.0	-0.0	-0.0	-0.0	-0.0	-0.0	79709.921875	-31273.6015625	6101.7880859375
0.247	-0.0	-0.0	-0.0	-4.859508514404297	30.501407623291016	-239.4932556152344	7.540416717529297	-30.265485763549805	-272.4593200683594	-0.0	-0.0	-0.0	-0.0	-0.0	-0.0	79451.8671875	-31444.060546875	6401.87744140625
0.2475	-0.0	-0.0	-0.0	-4.568529605865479	31.12528610229492	-241.3706970214844	7.835477828979492	-30.51130104064941	-271.8373107910156	-0.0	-0.0	-0.0	-0.0	-0.0	-0.0	79363.0859375	-31563.224609375	6269.8330078125
0.248	-0.0	-0.0	-0.0	-5.235436916351318	31.585376739501957	-241.7436065673828	8.70577335357666	-30.067502975463867	-269.4696655273437	-0.0	-0.0	-0.0	-0.0	-0.0	-0.0	79417.28125	-31696.412109375	6438.85302734375
0.2485	-0.0	-0.0	-0.0	-5.1742095947265625	30.79649353027344	-239.9934539794922	8.624058723449707	-29.900300979614254	-269.9694519042969	-0.0	-0.0	-0.0	-0.0	-0.0	-0.0	79363.7265625	-31675.703125	6478.0810546875
0.249	-0.0	-0.0	-0.0	-4.888088703155518	31.072797775268555	-241.0517120361328	8.652405738830566	-30.146045684814453	-268.7217712402344	-0.0	-0.0	-0.0	-0.0	-0.0	-0.0	79178.28125	-31601.71875	6607.22900390625
0.2495	-0.0	-0.0	-0.0	-4.780516624450684	31.3123836517334	-241.3313140869141	9.454214096069336	-30.029373168945312	-268.9584350585937	-0.0	-0.0	-0.0	-0.0	-0.0	-0.0	78966.8515625	-31758.8671875	6779.50830078125
0.25	-0.0	-0.0	-0.0	-5.048218250274658	31.223201751708984	-241.6734313964844	9.837454795837402	-30.177812576293945	-267.83648681640625	-0.0	-0.0	-0.0	-0.0	-0.0	-0.0	78658.2265625	-31777.546875	6742.541015625
0.2505	-0.0	-0.0	-0.0	-4.362188816070557	31.933988571166992	-241.63922119140625	9.907485961914062	-30.08036422729492	-268.49761962890625	-0.0	-0.0	-0.0	-0.0	-0.0	-0.0	78462.078125	-31773.595703125	6987.5810546875
0.251	-0.0	-0.0	-0.0	-4.318499565124512	31.85414123535156	-241.8922271728516	10.309144020080566	-29.931745529174805	-268.49761962890625	-0.0	-0.0	-0.0	-0.0	-0.0	-0.0	78405.09375	-31503.462890625	6802.17041015625
0.2515	-0.0	-0.0	-0.0	-4.094603061676025	31.50839233398437	-241.71255493164065	9.804828643798828	-29.89461326599121	-266.82525634765625	-0.0	-0.0	-0.0	-0.0	-0.0	-0.0	78099.5703125	-31813.462890625	6984.49658203125
0.252	-0.0	-0.0	-0.0	-4.701123237609863	31.810550689697266	-241.082763671875	10.094510078430176	-30.37343978881836	-266.71539306640625	-0.0	-0.0	-0.0	-0.0	-0.0	-0.0	78494.4609375	-31769.9296875	6934.65673828125
0.2525	-0.0	-0.0	-0.0	-4.139617443084717	31.82852935791016	-241.39724731445312	10.02431869506836	-30.28514671325684	-267.8356628417969	-0.0	-0.0	-0.0	-0.0	-0.0	-0.0	78524.7890625	-31663.25	6940.822265625
0.253	-0.0	-0.0	-0.0	-4.915497779846191	31.766069412231445	-241.71632385253903	9.739848136901855	-30.12682342529297	-270.0629272460937	-0.0	-0.0	-0.0	-0.0	-0.0	-0.0	78267.1015625	-31800.775390625	6792.33984375
0.2535	-0.0	-0.0	-0.0	-4.585323810577393	31.338104248046875	-242.81072998046875	9.801165580749512	-30.117694854736328	-267.5581359863281	-0.0	-0.0	-0.0	-0.0	-0.0	-0.0	78046.265625	-31705.6484375	6721.744140625
0.254	-0.0	-0.0	-0.0	-4.99578857421875	32.042598724365234	-242.1742706298828	9.38764762878418	-30.346311569213867	-267.8352355957031	-0.0	-0.0	-0.0	-0.0	-0.0	-0.0	78138.703125	-31744.662109375	6818.64599609375
0.2545	-0.0	-0.0	-0.0	-5.120232105255127	31.53456115722656	-245.3205718994141	9.403343200683594	-29.764408111572266	-267.763671875	-0.0	-0.0	-0.0	-0.0	-0.0	-0.0	78395.953125	-31599.083984375	6798.25
0.255	-0.0	-0.0	-0.0	-5.789943218231201	31.69549369812012	-244.4005126953125	9.314632415771484	-29.711891174316406	-267.06561279296875	-0.0	-0.0	-0.0	-0.0	-0.0	-0.0	78221.421875	-31598.138671875	6869.10986328125
0.2555	-0.0	-0.0	-0.0	-5.718195915222168	31.44362449645996	-243.97825622558597	8.923893928527832	-29.932117462158203	-267.4501342773437	-0.0	-0.0	-0.0	-0.0	-0.0	-0.0	78279.8359375	-31503.27734375	6756.1435546875
0.256	-0.0	-0.0	-0.0	-6.16417932510376	31.480323791503903	-244.5032958984375	8.18810749053955	-30.038238525390625	-266.437744140625	-0.0	-0.0	-0.0	-0.0	-0.0	-0.0	78100.296875	-31538.291015625	6527.26025390625
0.2565	-0.0	-0.0	-0.0	-6.3425798416137695	31.39115333557129	-245.847412109375	8.010625839233398	-29.711471557617188	-266.0185546875	-0.0	-0.0	-0.0	-0.0	-0.0	-0.0	78121.4921875	-31507.4140625	6521.26806640625
0.257	-0.0	-0.0	-0.0	-6.567303657531738	31.463031768798828	-243.4766540527344	7.797729015350342	-30.312408447265625	-266.0188293457031	-0.0	-0.0	-0.0	-0.0	-0.0	-0.0	77943.3515625	-31274.853515625	6265.806640625
0.2575	-0.0	-0.0	-0.0	-6.754396915435791	31.259191513061523	-244.36672973632807	7.780191898345947	-29.48984718322754	-265.9497985839844	-0.0	-0.0	-0.0	-0.0	-0.0	-0.0	77614.0390625	-31112.802734375	6227.4912109375
0.258	-0.0	-0.0	-0.0	-6.10037899017334	30.856136322021484	-244.1484832763672	7.17680549621582	-29.7469482421875	-265.3897399902344	-0.0	-0.0	-0.0	-0.0	-0.0	-0.0	77812.84375	-31169.935546875	6146.7998046875
0.2585	-0.0	-0.0	-0.0	-6.512367248535156	30.92824935913086	-243.4747314453125	7.044666767120361	-29.89774513244629	-266.724365234375	-0.0	-0.0	-0.0	-0.0	-0.0	-0.0	77769.109375	-31270.51953125	6221.04638671875
0.259	-0.0	-0.0	-0.0	-6.019200801849365	30.43552589416504	-243.0544586181641	7.202916145324707	-29.87862968444824	-265.1084899902344	-0.0	-0.0	-0.0	-0.0	-0.0	-0.0	77687.96875	-30894.890625	6137.98974609375
0.2595	-0.0	-0.0	-0.0	-5.765077114105225	30.936643600463867	-244.2136383056641	7.248323440551758	-29.958282470703125	-264.75909423828125	-0.0	-0.0	-0.0	-0.0	-0.0	-0.0	77785.5390625	-31020.1484375	6247.97705078125
